<svg width="439.707" xmlns="http://www.w3.org/2000/svg" height="423.66" id="screenshot-64d25a13-4adb-80d6-8006-2f280464d821" viewBox="0 0 439.707 423.66" xmlns:xlink="http://www.w3.org/1999/xlink" fill="none" version="1.1"><g id="shape-64d25a13-4adb-80d6-8006-2f280464d821" rx="0" ry="0" style="fill: rgb(0, 0, 0);"><g id="shape-64d25a13-4adb-80d6-8006-2f2804652a78"><defs><linearGradient gradientUnits="userSpaceOnUse" y1="265.174" id="render-2-d" xlink:href="#render-2-a" x1="1471.305" y2="-113.089" x2="1453.594" gradientTransform="matrix(1.000000, 0.000000, 0.000000, 1.000000, -941.796580, 530.197492) translate(-365.04152,-376.89986)"/><linearGradient id="render-2-a"><stop offset="0" style="stop-color: rgb(0, 162, 255); stop-opacity: 1;"/><stop offset="1" style="stop-color: rgb(0, 56, 116); stop-opacity: 1;"/></linearGradient></defs><g class="fills" id="fills-64d25a13-4adb-80d6-8006-2f2804652a78"><rect rx="67.49999999999989" ry="67.49999999999989" x="96.96642010022038" y="5.18849228207705" transform="matrix(0.856517, 0.516119, -0.516119, 0.856517, 132.927499, -54.490201)" width="134.99999999999977" height="413.28300000000013" style="fill: url(&quot;#render-2-d&quot;); stroke-width: 125.9; stroke-linecap: round; stroke-linejoin: round; paint-order: stroke;"/></g></g><g id="shape-64d25a13-4adb-80d6-8006-2f280465419a"><defs><linearGradient gradientUnits="userSpaceOnUse" y1="994.868" id="render-3-e" xlink:href="#render-3-b" x1="1462.886" y2="809.502" x2="1368.063" gradientTransform="matrix(1.000000, 0.000000, 0.000000, 1.000000, -947.382192, -86.445641) translate(-118.13928,-511.22588)"/><linearGradient id="render-3-b"><stop offset="0" style="stop-color: rgb(0, 215, 255); stop-opacity: 1;"/><stop offset="1" style="stop-color: rgb(0, 162, 255); stop-opacity: 1;"/></linearGradient></defs><g class="fills" id="fills-64d25a13-4adb-80d6-8006-2f280465419a"><path d="M238.707,25.732C227.628,25.461,216.488,27.991,206.260,33.644C204.621,34.550,203.078,35.562,201.551,36.589C191.394,42.794,182.397,51.588,175.678,62.740L131.451,136.136C134.227,132.451,137.789,129.262,142.101,126.878C158.462,117.836,178.911,123.724,187.959,140.079C187.959,140.083,187.969,140.087,187.969,140.091L235.193,225.542L257.684,266.234L258.484,267.685C258.485,267.686,258.484,267.688,258.484,267.689L277.762,302.570C277.862,302.751,277.963,302.931,278.061,303.113C281.913,310.269,284.447,318.140,285.354,326.456C285.435,327.288,285.515,328.119,285.568,328.949C285.657,330.230,285.696,331.524,285.707,332.824C285.718,333.769,285.717,334.712,285.688,335.654C284.424,370.663,254.798,398.447,217.581,400.507L365.641,403.279C367.650,403.317,369.625,403.224,371.594,403.115C408.804,401.046,438.418,373.263,439.682,338.259C439.708,337.314,439.712,336.367,439.701,335.417C439.690,334.131,439.651,332.852,439.565,331.583C439.512,330.733,439.427,329.881,439.344,329.029C439.191,327.631,438.976,326.250,438.732,324.878C437.398,316.087,434.619,307.295,429.996,298.931L300.586,64.773C287.161,40.481,263.081,26.328,238.707,25.732ZZ" style="fill: url(&quot;#render-3-e&quot;); stroke-width: 125.9; stroke-linecap: round; stroke-linejoin: round; paint-order: stroke;"/></g></g><g id="shape-64d25a13-4adb-80d6-8006-2f280465d2a2"><defs><linearGradient gradientUnits="userSpaceOnUse" y1="1032.795" id="render-4-f" xlink:href="#render-4-c" x1="1855.322" y2="905.285" x2="1691.743" gradientTransform="matrix(1.000000, 0.000000, 0.000000, 1.000000, -947.382192, -86.445641) translate(-622.2267,-545.84206)"/><linearGradient id="render-4-c"><stop offset="0" style="stop-color: rgb(0, 56, 116); stop-opacity: 1;"/><stop offset="1" style="stop-color: rgb(0, 107, 183); stop-opacity: 1;"/></linearGradient></defs><g class="fills" id="fills-64d25a13-4adb-80d6-8006-2f280465d2a2"><path d="M217.581,400.507C254.798,398.447,284.424,370.663,285.688,335.654C285.717,334.713,285.717,333.770,285.706,332.824C285.695,331.524,285.656,330.230,285.567,328.949C285.514,328.119,285.433,327.288,285.352,326.456C284.446,318.140,281.912,310.269,278.060,303.113C277.962,302.931,277.861,302.751,277.761,302.570L258.483,267.689C258.483,267.688,258.484,267.686,258.483,267.685L257.683,266.234L257.032,265.058L139.554,263.962C132.110,263.893,125.189,267.781,121.377,274.175C117.565,280.569,117.435,288.506,121.036,295.021L157.847,361.624C170.877,385.202,193.949,399.158,217.581,400.507ZZ" style="fill: url(&quot;#render-4-f&quot;); stroke-width: 125.9; stroke-linecap: round; stroke-linejoin: round; paint-order: stroke;"/></g></g></g></svg>